<svg xmlns="http://www.w3.org/2000/svg" viewBox="0 0 900 520">
  <rect width="900" height="520" fill="#2b3747"/>
  <g fill="none" stroke="#c8ba7a" stroke-width="8" stroke-linecap="round" stroke-linejoin="round" transform="translate(450 95)">
    <path d="M0 0 C-74 62 -106 132 -58 184 C-32 212 0 216 0 216 C0 216 32 212 58 184 C106 132 74 62 0 0Z"/>
    <path d="M0 20v220M0 52l-42 38M0 52l42 38M0 94l-58 52M0 94l58 52M0 140l-48 42M0 140l48 42M-46 250h92M-30 268h60"/>
  </g>
  <text x="450" y="365" text-anchor="middle" font-family="Arial Narrow, Arial, sans-serif" font-size="78" letter-spacing="15" fill="white">GRALHA AZUL</text>
  <text x="450" y="420" text-anchor="middle" font-family="Arial Narrow, Arial, sans-serif" font-size="39" letter-spacing="11" fill="white">IMOBILIÁRIA</text>
</svg>
